<?xml version="1.0" encoding="UTF-8" standalone="no"?>
<svg
   xmlns:osb="http://www.openswatchbook.org/uri/2009/osb"
   xmlns:dc="http://purl.org/dc/elements/1.1/"
   xmlns:cc="http://creativecommons.org/ns#"
   xmlns:rdf="http://www.w3.org/1999/02/22-rdf-syntax-ns#"
   xmlns:svg="http://www.w3.org/2000/svg"
   xmlns="http://www.w3.org/2000/svg"
   xmlns:xlink="http://www.w3.org/1999/xlink"
   xmlns:sodipodi="http://sodipodi.sourceforge.net/DTD/sodipodi-0.dtd"
   xmlns:inkscape="http://www.inkscape.org/namespaces/inkscape"
   version="1.0"
   width="1331.4106pt"
   height="1149.1035pt"
   viewBox="0 0 1331.4106 1149.1035"
   preserveAspectRatio="xMidYMid meet"
   id="svg42"
   sodipodi:docname="hivemind.svg"
   inkscape:version="0.92.5 (2060ec1f9f, 2020-04-08)">
  <metadata
     id="metadata48">
    <rdf:RDF>
      <cc:Work
         rdf:about="">
        <dc:format>image/svg+xml</dc:format>
        <dc:type
           rdf:resource="http://purl.org/dc/dcmitype/StillImage" />
        <dc:title></dc:title>
      </cc:Work>
    </rdf:RDF>
  </metadata>
  <defs
     id="defs46">
    <linearGradient
       id="linearGradient4014"
       osb:paint="solid">
      <stop
         style="stop-color:#63aeff;stop-opacity:1;"
         offset="0"
         id="stop4012" />
    </linearGradient>
    <inkscape:perspective
       sodipodi:type="inkscape:persp3d"
       inkscape:vp_x="0 : 574.55175 : 1"
       inkscape:vp_y="0 : 1000 : 0"
       inkscape:vp_z="1331.4106 : 574.55175 : 1"
       inkscape:persp3d-origin="665.7053 : 383.0345 : 1"
       id="perspective2353" />
    <filter
       inkscape:collect="always"
       style="color-interpolation-filters:sRGB"
       id="filter3680"
       x="-0.019470231"
       width="1.0389405"
       y="-0.016734831"
       height="1.0334697">
      <feGaussianBlur
         inkscape:collect="always"
         stdDeviation="91.924628"
         id="feGaussianBlur3682" />
    </filter>
    <filter
       inkscape:collect="always"
       style="color-interpolation-filters:sRGB"
       id="filter3992"
       x="-0.0035888889"
       width="1.0071778"
       y="-0.018283019"
       height="1.036566">
      <feGaussianBlur
         inkscape:collect="always"
         stdDeviation="11.426886"
         id="feGaussianBlur3994" />
    </filter>
    <linearGradient
       inkscape:collect="always"
       xlink:href="#linearGradient4014"
       id="linearGradient4016"
       x1="2551.8206"
       y1="-3240.0003"
       x2="10248.179"
       y2="-3240.0003"
       gradientUnits="userSpaceOnUse" />
  </defs>
  <sodipodi:namedview
     pagecolor="#ffffff"
     bordercolor="#666666"
     borderopacity="1"
     objecttolerance="10"
     gridtolerance="10"
     guidetolerance="10"
     inkscape:pageopacity="0"
     inkscape:pageshadow="2"
     inkscape:window-width="1920"
     inkscape:window-height="985"
     id="namedview44"
     showgrid="false"
     fit-margin-top="0"
     fit-margin-left="0"
     fit-margin-right="0"
     fit-margin-bottom="0"
     inkscape:zoom="0.45471497"
     inkscape:cx="764.41409"
     inkscape:cy="732.67863"
     inkscape:window-x="0"
     inkscape:window-y="0"
     inkscape:window-maximized="1"
     inkscape:current-layer="g40" />
  <g
     inkscape:groupmode="layer"
     id="layer1"
     inkscape:label="Layer 2">
    <path
       d="M 1432.8961,6127.6887 C 544.77352,4599.7667 -183.80558,3309.8915 -183.80558,3265.604 c 0,-49.8232 728.5791,-1334.1634 1616.70168,-2862.08421 1090.2103,-1865.61439 1659.2462,-2790.11839 1728.3828,-2806.72489 138.2703,-38.7517 6296.6287,-38.7517 6434.8997,0 69.135,22.1438 462.6724,642.1695 1143.3894,1810.25399 569.036,979.8629 1308.254,2247.59441 1643.298,2817.79741 l 600.939,1040.7577 -1552.884,2668.3257 c -861.531,1472.562 -1606.0654,2740.294 -1659.2484,2828.869 l -101.04,149.471 H 6362.7739 l -3307.8574,-5.536 z m 8046.2875,2424.744 c 79.765,-77.503 2999.4144,-5070.9266 3052.5864,-5209.3246 26.592,-77.5041 -2978.1344,-5275.7579 -3089.8184,-5347.7257 -31.908,-22.143 -1425.2493,-44.2867 -3095.1326,-44.2867 -2823.9094,0 -3041.9527,5.535 -3116.4061,99.6465 -69.134,77.5035 -2829.22848,4788.5938 -3004.72468,5131.8225 -42.54399,77.5037 -42.54399,143.9344 10.6357,254.6535 143.5886,287.87 2908.99978,5004.4965 2988.77158,5104.1425 79.7708,88.574 297.8141,94.111 3132.36,94.111 2600.5511,0 3057.9071,-11.072 3121.7281,-83.039 z"
       id="path20-6"
       inkscape:connector-curvature="0"
       style="opacity:0.457;fill:#000000;fill-opacity:0.99283153;stroke:#000001;stroke-width:333.29501343;stroke-linecap:round;stroke-linejoin:miter;stroke-miterlimit:4;stroke-dasharray:none;stroke-opacity:1;paint-order:stroke fill markers;filter:url(#filter3680)"
       transform="matrix(0,-0.07137543,-0.07129087,0,896.68771,1031.3545)" />
  </g>
  <g
     transform="matrix(0.1,0,0,-0.1,25.705338,898.55177)"
     id="g40"
     style="fill:#333333;stroke:none">
    <path
       d="m 11343.399,4328.1734 c -7.034,-13.7421 -92.307,-179.1726 -192.019,-367.5796 l -178.63,-342.8744 227.572,-370.593 228.96,-370.9323 360.248,1.1618 c 198.773,0.079 382.972,0.7695 411.067,1.2745 l 49.43,0.4519 -12.606,20.7426 c -10.502,17.286 -68.795,19.7327 -401.811,18.5511 l -389.733,-1.3279 -210.983,351.0865 -209.595,350.7481 175.851,343.5524 c 152.527,296.2431 174.799,345.2811 165.314,366.7358 -9.675,23.7077 -11.064,24.0467 -23.065,-0.9975 z"
       id="path2"
       inkscape:connector-curvature="0"
       style="fill:#333333;stroke-width:1" />
    <path
       d="m 8174.2528,8560.239 c 0,-6 -18,-39 -40,-74 -22,-35 -40,-68 -40,-75 0,-6 71,-126 157,-266 l 158,-255 320,2 319,3 152,250 c 84,138 153,256 153,263 1,7 -18,46 -41,87 l -43,74 -547,1 c -368,0 -548,-3 -548,-10 z"
       id="path4"
       inkscape:connector-curvature="0"
       style="fill:#333333" />
    <path
       style="fill:#333333;stroke-width:0.99999994"
       d="m 2847.4482,5475.9555 c -5.9209,-9.6665 -11.3737,-18.7622 -17.5342,-28.6817 -57.9999,-96 -105.996,-181.9902 -105.996,-189.9902 0,-9 135.0078,-236.001 298.0078,-506.001 l 297.9932,-490.0049 615,-3.0029 615,-1.9922 296.9971,487.998 c 163,269 299.0068,494.9942 302.0068,503.9942 2.7056,6.7641 -42.6357,89.0801 -124.2774,227.6807 h -70.4004 c 75.8418,-126.1876 129.6827,-216.633 129.6827,-218.6719 0,-3 -128.0078,-215.0059 -283.0079,-471.0059 l -281.9971,-465 h -579.0087 -578.9942 l -278.9941,459.0088 c -153,253 -277.9981,467.9932 -277.9981,477.9932 0,9 50.9942,102.0049 113.9942,205.0049 l 7.6172,12.6709 z"
       id="path6"
       inkscape:connector-curvature="0" />
    <path
       d="m 3361.6395,8445.1863 c -96,-153 -491,-811 -494,-823 -3,-13 338,-590 483,-817 l 34,-53 h 524 524 l 261,431 c 221,364 260,433 251,450 -30,54 -494,816 -508,832 -14,16 -52,17 -533,17 h -519 z m 1040,-21 c 9,-6 444,-718 482,-789 10,-20 -13,-62 -232,-425 l -242,-403 h -499 -499 l -224,370 c -123,204 -233,386 -243,406 l -19,36 241,399 c 132,220 246,402 252,406 6,4 227,8 491,8 264,0 485,-4 492,-8 z"
       id="path8"
       inkscape:connector-curvature="0"
       style="fill:#333333" />
    <path
       style="fill:#333333;stroke-width:0.99999994"
       d="m 9229.9923,1797.8268 c -44.1578,-73.6648 -76.8315,-129.1825 -76.8315,-131.9238 0,-4 -19.9995,-40.0098 -45,-80.0098 l -45.996,-72.9931 226.9927,-374.004 c 124.9995,-204.9999 234.0068,-381.00002 242.0063,-390.00002 14.0002,-16.9999 50.0032,-18.0029 483.0032,-18.0029 h 466.992 l 8.936,14.707 V 918.2614 l -58.931,-97.36822 -426.006,2.0068 -425.9912,3.003 -202.998,334.99512 c -111,184 -203.0123,342.0059 -203.0123,351.0059 0,9 24.0083,53.9902 54.0083,99.9902 18.9952,30.1303 64.3905,103.4669 114.9172,185.9326 z"
       id="path12"
       inkscape:connector-curvature="0" />
    <path
       style="fill:#4d4d4d;stroke-width:0.99999994"
       d="m 7067.5224,7621.1761 c -2.5654,-1.0592 1.5013,-8.5237 10.4838,-22.9656 l 14.0883,-24.2064 -333.6955,-199.9911 -333.6881,-200.0037 -7.8839,-397.9685 c -4.4644,-218.9637 -10.0482,-406.1919 -12.074,-416.6272 -3.2514,-12.3056 -19.8961,-25.4571 -56.8405,-43.4878 -28.663,-14.3679 -48.9014,-27.3026 -43.7944,-30.1155 4.6049,-1.948 24.7684,5.1613 45.5111,17.2336 19.8793,11.5698 41.268,20.5402 45.3699,19.4563 11.4421,-3.7539 11.8675,-10.4507 5.6046,-299.8831 -2.5105,-136.8341 -0.1059,-252.2949 6.008,-256.8359 5.611,-3.6766 283.6617,-155.3975 618.268,-336.6918 l 607.9227,-328.8487 208.2172,115.4033 c 126.8304,70.3445 211.0907,112.442 214.9722,107.7588 4.2444,-3.3147 6.2964,-28.7267 4.3985,-55.286 l -4.0716,-48.6568 -241.3528,-143.9424 -240.9996,-142.5672 -10.7117,-572.0337 c -5.5663,-314.4816 -7.8454,-574.9747 -5.8334,-578.4317 2.012,-3.4571 37.4037,-24.5067 79.1311,-46.5026 41.2244,-21.1316 78.1301,-44.7825 81.6512,-50.8324 3.521,-6.0499 6.348,-64.5761 5.1304,-130.0786 -0.1096,-111.1389 -6.203,-156.3419 -18.5086,-153.0905 -2.7337,0.7229 -94.5327,49.1193 -202.1607,106.8109 -108.9936,58.0541 -203.3981,104.9374 -210.5958,105.3764 -7.1977,0.4391 -179.4614,-95.1929 -382.5679,-213.4014 -307.6826,-179.0719 -369.7729,-217.5273 -374.1081,-233.9348 -6.7215,-28.2096 -25.0744,-825.667 -18.5352,-836.9026 3.0181,-5.1858 150.276,-87.2534 326.1763,-182.7319 176.7644,-94.9754 323.1713,-177.5429 325.6863,-181.8642 2.5151,-4.3214 177.3835,92.8311 431.4816,240.7167 l 426.9453,248.4831 1.4128,41.3128 c 0.8142,22.4576 4.8649,43.322 9.1863,45.837 4.3213,2.515 24.4757,-4.262 44.4043,-14.6472 24.5335,-12.3332 44.3921,-14.6542 57.3563,-7.109 l 20.7384,12.0698 -38.9901,21.2726 c -21.2959,10.7465 -48.7094,26.0362 -61.6598,32.3835 -13.4534,7.2115 -24.5928,20.3911 -26.5271,29.6787 -1.07,9.7905 -0.5011,142.0324 3.2487,294.6294 2.8873,152.0946 4.3174,284.8209 2.3832,294.1085 -1.2109,12.0226 -42.8656,39.8517 -119.8462,80.6692 -64.0286,34.4713 -125.8296,69.0696 -136.5484,75.5586 -18.2,11.3912 -21.1999,30.4775 -18.7161,139.5272 1.1587,151.0888 2.2429,155.184 27.3571,147.817 10.9393,-2.8897 183.4548,-94.5506 383.8884,-202.3623 199.5694,-108.3147 371.231,-200.4726 381.3042,-203.8661 14.6798,-5.3407 93.4728,38.1985 512.6474,282.159 367.3196,213.7808 497.5976,286.1475 501.6216,279.2334 3.5212,-6.0501 4.1548,-100.5738 1.8119,-211.8556 -5.2786,-241.4211 -4.9274,-240.0484 23.5938,-223.4489 19.0141,11.0663 21.9956,41.7239 27.0133,237.8688 3.3117,145.3996 0.2415,236.1676 -9.3157,252.5889 -14.8709,29.5272 -10.5543,533.0462 6.0501,582.0492 5.2004,16.911 5.9364,33.5287 1.1888,37.7079 -4.7457,4.1802 -6.5074,116.5543 -3.8552,251.1568 2.6539,134.6035 2.6265,247.97 -0.3916,253.1556 -5.0302,8.6429 -910.0043,505.9295 -978.8582,538.7496 l -30.0003,13.7764 -254.9546,-148.3843 C 8065.7506,5219.17 8070.5756,5220.8099 8075.482,5305.8148 l 2.3492,47.6541 405.3462,235.9123 c 374.2336,217.8049 404.8458,236.7818 408.3936,258.5161 2.388,11.8032 8.2644,272.0812 14.3986,577.6371 5.2706,305.0535 11.9939,565.8368 13.878,578.5037 4.0517,20.8707 25.16,34.3128 269.8927,174.4337 l 265.9851,151.3295 39.6282,-24.3759 40.5128,-23.861 -7.3709,-384.9584 c -4.0255,-211.766 -4.8492,-389.2647 -2.3342,-393.5861 3.0181,-5.1856 213.4511,-122.2202 467.8397,-261.1096 l 461.793,-250.7478 153.765,83.7122 c 40.774,22.0551 113.165,63.3607 196.602,111.8631 l -33.858,58.1743 c -3.946,-1.7877 -7.993,-6.0431 -12.286,-13.049 -12.618,-20.0705 -277.298,-177.5945 -298.029,-175.7749 -7.197,0.439 -205.131,103.9327 -439.089,231.5723 -303.9585,164.4202 -428.6981,237.6031 -433.6505,252.0763 -13.5675,37.228 3.5766,691.6713 17.1847,696.1201 7.9211,2.2961 262.3878,-130.7628 566.3458,-295.183 115.033,-62.0718 205.559,-110.8797 283.532,-152.8233 l -8.967,15.4077 c -79.411,43.3514 -150.926,82.4693 -246.133,134.2853 -308.7045,168.6003 -571.9522,312.7549 -584.1801,321.8368 -20.212,14.8483 -22.7836,27.2405 -20.095,125.9961 2.0042,60.1752 4.508,119.474 7.2565,132.6438 3.5056,18.0535 43.3757,44.1426 310.6349,200.2134 l -28.8325,49.5399 -344.8071,-203.1191 -2.4334,-117.1082 c -1.7197,-64.6378 -7.9646,-121.4925 -14.3759,-126.3809 -5.9082,-5.7527 -26.7745,-1.6984 -45.3367,8.325 l -33.374,17.5922 -252.1593,-143.2828 c -137.9234,-79.1146 -256.2464,-142.1926 -263.0837,-140.3867 -6.8355,1.8068 -10.1065,39.2333 -9.3433,83.6446 0.7648,44.4124 -0.9307,85.0902 -3.9488,90.2758 -3.0181,5.1856 -281.2181,159.1451 -619.9263,341.5232 l -614.8937,332.8761 -278.2996,-161.9711 -278.2997,-161.9709 -28.9154,17.8822 c -17.5155,11.211 -26.7101,16.5622 -29.2755,15.5031 z m -509.2221,-525.6171 258.422,150.4023 c 217.7984,126.7591 258.5628,148.1824 264.5989,137.811 7.5451,-12.9641 3.5234,-584.5744 -4.2188,-624.9483 -4.0508,-20.8701 -26.378,-36.1821 -257.1405,-170.4864 -160.756,-93.5604 -256.9795,-144.9289 -263.4555,-141.7558 -5.6109,3.6767 -7.7667,150.5223 -4.2088,327.3051 z m 545.3687,317.4059 290.3909,169.0081 290.4021,169.0147 530.9371,-288.0124 c 292.3767,-158.4338 537.1867,-294.8045 543.9455,-302.4413 7.2616,-8.501 12.4077,-47.1614 11.8633,-87.9745 -0.9885,-125.5349 36.6985,-90.8758 -347.9067,-314.7169 l -338.8026,-197.1839 -8.9026,-487.661 c -4.4412,-268.7025 -10.156,-503.4239 -11.2536,-521.4182 l -2.3321,-33.7634 -216.062,-125.7485 -215.2125,-125.2541 -71.3627,37.1428 c -236.7688,122.5325 -1009.9351,548.4337 -1016.4743,559.6693 -4.5271,7.7785 -6.2727,134.0352 -2.6006,280.8015 l 5.453,266.9637 272.3112,164.2823 273.2037,164.7847 5.5104,336.436 z m 1324.8832,-674.337 c 160.0545,94.02 321.0255,184.2445 329.1187,180.2769 7.482,-4.9016 0.7,-667.2099 -9.289,-940.2982 l -2.7259,-62.9071 -324.1047,-188.6297 c -294.7192,-171.5272 -324.6058,-187.7686 -332.151,-174.8045 -10.0602,17.2855 6.064,955.7757 15.52,983.2628 4.439,11.2612 163.5773,109.0799 323.6319,203.0998 z"
       id="path16"
       inkscape:connector-curvature="0" />
    <path
       d="m 3138.1088,6990.3848 c -144,-237 -261,-433 -261,-438 0,-4 116,-198 258,-432 l 258,-425 h 529 529 l 258,425 c 142,234 258,428 258,432 0,4 -117,201 -261,438 l -261,430 h -523 -523 z m 1281,368 c 14,-12 459,-737 480,-783 8,-18 -28,-83 -228,-416 -130,-217 -244,-400 -252,-406 -12,-10 -126,-13 -493,-13 -440,0 -478,1 -497,18 -26,22 -482,775 -482,795 0,15 449,766 478,800 14,16 50,17 497,17 370,0 485,-3 497,-12 z"
       id="path18"
       inkscape:connector-curvature="0"
       style="fill:#333333" />
    <path
       d="M 1432.8959,6127.6882 C 544.77327,4599.767 -183.80583,3309.8915 -183.80583,3265.604 c 0,-49.8232 728.5791,-1334.1634 1616.70173,-2862.08439 C 2523.1062,-1462.0944 3092.142,-2386.5988 3161.2786,-2403.205 c 138.2703,-38.7516 6296.6283,-38.7516 6434.9003,0 69.134,22.1437 462.6711,642.1694 1143.3881,1810.25413 569.036,979.86238 1308.254,2247.59417 1643.299,2817.79717 L 12983.805,3265.604 11430.92,5933.9299 C 10569.389,7406.4916 9824.8549,8674.2236 9771.6729,8762.7987 l -101.04,149.4707 H 6362.7737 l -3307.8575,-5.5361 z m 8046.287,2424.7449 c 79.765,-77.503 2999.4141,-5070.927 3052.5861,-5209.325 26.592,-77.5041 -2978.1331,-5275.7582 -3089.8181,-5347.7256 -31.907,-22.1431 -1425.2486,-44.2866 -3095.1321,-44.2866 -2823.9095,0 -3041.9528,5.5348 -3116.4062,99.6464 -69.134,77.5031 -2829.22843,4788.5937 -3004.72463,5131.8224 -42.544,77.5037 -42.544,143.9344 10.6357,254.6535 143.5886,287.87 2908.99983,5004.4961 2988.77163,5104.1422 79.7707,88.5747 297.814,94.1114 3132.3599,94.1114 2600.5507,0 3057.9077,-11.0719 3121.7277,-83.0387 z"
       id="path20"
       inkscape:connector-curvature="0"
       style="opacity:0.692;fill:#f16300;fill-opacity:0.99641579;stroke:#00b2ff;stroke-width:0;stroke-linecap:round;stroke-linejoin:miter;stroke-miterlimit:4;stroke-dasharray:none;stroke-opacity:1;paint-order:stroke fill markers" />
    <path
       d="m 803.0824,3345.4922 c -5,-14 -4,-15 9,-4 17,14 19,20 6,20 -5,0 -12,-7 -15,-16 z"
       id="path22"
       inkscape:connector-curvature="0"
       style="fill:#333333" />
    <path
       d="m 777.0824,3301.4922 c -6,-11 -8,-20 -6,-20 3,0 10,9 16,20 6,11 8,20 6,20 -3,0 -10,-9 -16,-20 z"
       id="path24"
       inkscape:connector-curvature="0"
       style="fill:#333333" />
    <path
       d="m 747.0824,3251.4922 c -6,-11 -8,-20 -6,-20 3,0 10,9 16,20 6,11 8,20 6,20 -3,0 -10,-9 -16,-20 z"
       id="path26"
       inkscape:connector-curvature="0"
       style="fill:#333333" />
    <path
       d="m 3403.0947,6098.6096 -156,-255 17,-38 c 9,-20 97,-168.9999 195,-329.9999 l 179,-292 h 408 407 l 161,271 c 144,241 192,330.9999 166,306 -5,-5 -83,-131 -174,-280 l -166,-272 h -394 -395 l -152,250 c -83,138 -170,279 -192,314 -23,34.9999 -41,67.9999 -41,73.9999 0,8 215,370 288,485 8,12 12,22 9,22 -3,0 -75,-115 -160,-255 z"
       id="path28"
       inkscape:connector-curvature="0"
       style="fill:#333333" />
    <path
       d="m 5320.7103,7715.0093 c -8,-10 -86,-134 -173,-277 -133,-219 -156,-262 -147,-280 15,-32 302,-499 320,-518 14,-17 43.0003,-18 347.0003,-18 h 332.0003 l 167,276 168,276 -168,279 -167,279 h -332.0003 c -304,0 -333.0003,-1 -347.0003,-17 z"
       id="path30"
       inkscape:connector-curvature="0"
       style="fill:#4d4d4d" />
    <path
       d="m 5944.6446,5385.608 c -35,-51 -392,-642 -392,-650 0,-4 91,-160 202,-345 l 203,-338 h 420 420 l 208,340 c 194,317 207,342 195,364 -7,13 -101,166 -208,340 l -195,316 h -417 -417 z"
       id="path32"
       inkscape:connector-curvature="0"
       style="fill:#333333" />
    <path
       d="m 10154.443,2028.0879 c -426.0001,-705 -552.0001,-914 -552.0001,-918 0,-3 11,-5 23,-5 15,0 28,9 34,23 20,43 566.0001,932 577.0001,939 6,4 274,7 596,5 l 584,-2 96,-157 95,-157 3,56 c 2,31 -1,59 -6,62 -5,3 -37,53 -72,111 -35,58 -70,113 -78,123 -14,16 -57,17 -628,17 h -613 z"
       id="path36"
       style="fill:#333333"
       inkscape:connector-curvature="0" />
    <path
       d="m 2149.4655,6242.339 c -111,-183 -224,-368 -251,-411 -26,-43 -48,-80 -48,-83 0,-2 10,-4 23,-4 18,1 59,63 247,372 124,204 233,382 243,395 l 18,23 h 584 584 l 18,-24 c 10,-13 119,-190 243,-394 208,-343 227,-371 253,-372 15,0 27,3 26,8 0,4 -112,189 -248,412 l -248,405 -620,3 -621,2 z"
       id="path38"
       inkscape:connector-curvature="0"
       style="fill:#333333" />
    <path
       style="stroke-width:0.99999988;fill:#4d4d4d"
       inkscape:connector-curvature="0"
       d="m 6003.5957,3152.9107 -23.9782,-14.4585 -205.1495,330.5448 -205.1498,330.5438 -398.0527,1.7027 c -219.0061,1.0651 -406.289,3.7419 -416.7545,5.6056 -12.3546,3.0602 -25.7671,19.4951 -44.3696,56.1546 -14.8111,28.4367 -28.0602,48.473 -30.7932,43.3219 -1.8762,-4.6346 5.5423,-24.6834 17.9351,-45.2363 11.8765,-19.6964 21.184,-40.9416 20.1641,-45.0597 -3.5765,-11.4986 -10.2637,-12.0275 -299.7578,-10.2594 -136.8573,0.3863 -252.2671,-3.8107 -256.7123,-9.994 -3.5892,-5.6676 -150.9796,-286.0474 -327.0576,-623.4282 l -319.3627,-612.9496 118.6139,-206.3972 c 72.3046,-125.7219 115.7053,-209.3182 111.0834,-213.273 -3.2491,-4.2946 -28.6256,-6.7512 -55.2111,-5.2656 l -48.7132,3.323 -147.6685,239.0905 -146.2963,238.7496 -572.1247,1.8359 c -314.5309,0.6837 -575.0337,-1.0858 -578.459,-3.1511 -3.4258,-2.0661 -23.9272,-37.7821 -45.2729,-79.8464 -20.4892,-41.5479 -43.56,-78.8134 -49.5546,-82.4283 -5.9943,-3.6139 -64.4672,-7.3431 -129.9802,-7.1435 -111.1279,-1.615 -156.4155,3.7739 -153.3558,16.128 0.6803,2.7459 47.6401,95.2864 103.6543,203.7959 56.3548,109.8832 101.7656,204.9931 102.0925,212.1961 0.3273,7.2039 -97.9723,177.973 -219.319,379.2192 -183.8273,304.8664 -223.2349,366.3486 -239.7077,370.4285 -28.3111,6.2835 -825.96584,12.2572 -837.09884,5.544 -5.13827,-3.0982 -84.90342,-151.6192 -177.63967,-328.9805 -92.21993,-178.2178 -172.50147,-325.8824 -176.78321,-328.4641 -4.28183,-2.5818 95.56669,-175.9203 247.37903,-427.6924 l 255.0867,-423.0444 41.33305,-0.7669 c 22.46701,-0.4659 43.39844,-4.1927 45.97994,-8.4748 2.58212,-4.2813 -3.89046,-24.5326 -13.9653,-44.6204 -11.95068,-24.7215 -13.96547,-44.6204 -6.21963,-57.4653 l 12.39285,-20.5529 20.66536,39.3183 c 10.41433,21.46 25.27442,49.1042 31.41992,62.1514 7.0018,13.5638 20.0111,24.9114 29.2671,26.9891 9.7729,1.2221 141.9956,2.7121 294.6325,1.3301 152.1207,-0.5246 284.8597,0.109 294.1158,2.1866 12.0022,1.3987 39.1786,43.4755 78.7964,121.0791 33.4729,64.5574 67.1216,126.8845 73.4437,137.7032 11.1073,18.3749 30.1364,21.6747 139.2113,20.8838 151.0882,1.1883 155.2064,0.1685 148.2302,-25.0571 -2.7201,-10.982 -91.6908,-184.9053 -196.3777,-386.9882 -105.2037,-201.2273 -194.6903,-374.2933 -197.9268,-384.4187 -5.1126,-14.7602 39.6477,-92.8664 290.0869,-508.2037 219.4569,-363.95584 293.8268,-493.10352 286.9762,-497.23398 -5.9947,-3.61476 -100.4859,-5.7074 -211.7905,-5.09398 -241.4737,1.53019 -240.101,1.19029 -223.0608,-27.06982 11.3602,-18.83997 42.0639,-21.34546 238.2634,-23.31677 145.4332,-1.05443 236.1462,3.43087 252.4174,13.24221 29.2925,15.3273 532.8063,18.82989 582.061,2.98784 16.9892,-4.93636 33.6255,-5.41477 37.731,-0.60359 4.1055,4.81119 116.4296,8.31496 251.0578,7.75217 134.6277,-0.56366 247.9847,1.22817 253.123,4.32641 8.5635,5.16352 491.7385,917.73661 523.4858,987.09181 l 13.311,30.2135 -152.329,252.6276 c -171.4348,284.3136 -169.7091,279.5157 -84.6381,275.9283 l 47.6802,-1.6108 242.1777,-401.6351 c 223.5879,-370.8066 243.0336,-401.1195 264.8209,-404.3305 11.8382,-2.2038 272.1775,-4.0358 577.7921,-5.4249 305.0976,-0.5337 565.9538,-3.2213 578.6479,-4.9093 20.9312,-3.7267 34.6969,-24.6195 178.6005,-267.1473 l 155.4397,-263.59725 -23.751,-40.01156 -23.2341,-40.86706 -385.0184,1.38753 c -211.8027,0.73763 -389.3002,-1.19436 -393.5819,-3.77608 -5.1382,-3.09832 -118.8928,-215.32009 -253.8157,-471.83391 l -243.5396,-465.63825 86.0829,-152.4456 c 47.0023,-83.76053 176.6112,-298.70807 287.6177,-476.99609 l 202.5678,-326.26263 368.8982,-1.7655 368.3817,-0.9101 209.6334,-341.8533 c 179.8603,-294.4134 212.0381,-343.9058 228.3351,-345.7576 11.3214,-1.3459 216.0968,-3.9855 456.1987,-5.1763 367.1854,-2.7986 437.8363,0.1012 447.7471,16.5868 22.7314,35.8921 397.4278,754.6065 405.6135,775.8906 6.4731,20.2498 -9.7107,49.0264 -237.5932,423.08227 l -244.7464,400.08627 -213.1755,1.07765 -214.0319,0.5611 -296.0437,487.09518 -296.3829,485.72382 -117.1354,0.6009 c -64.6566,0.71634 -121.6061,6.07953 -126.5936,12.41373 -5.8435,5.81852 -2.1163,26.74949 7.6183,45.4644 l 17.0761,33.65078 -147.1777,249.8959 c -81.2466,136.6781 -146.1582,254.013 -144.4581,260.877 1.6997,6.8631 39.0784,10.7184 83.4966,10.6438 44.4184,-0.075 85.0584,2.2435 90.1967,5.3418 5.1382,3.0983 154.7578,283.6547 331.8557,625.1536 l 323.2914,619.9894 -166.2709,275.7499 -166.2709,275.7499 17.429,29.1929 c 21.8747,35.3769 20.842,37.0897 -7.7582,18.6767 z m -214.3593,-6.6428 c -12.8454,-7.7453 -584.4409,-12.597 -624.9297,-5.4817 -20.9313,3.7266 -36.5861,25.8158 -174.4565,254.4655 -96.0448,159.284 -148.9035,254.694 -145.831,261.2171 3.5893,5.6677 150.3825,10.1041 327.1995,9.2902 l 321.7345,-1.0111 154.3944,-256.0533 c 130.1247,-215.8051 152.1653,-256.2301 141.8888,-262.4267 z m 96.8016,-1132.7105 c -153.8759,-294.8001 -286.4194,-541.7056 -293.9503,-548.5821 -8.3874,-7.3929 -46.962,-13.1368 -87.7785,-13.2256 -125.5354,-0.9611 -90.2967,-38.0989 -320.081,342.9841 l -202.417,335.695 -487.7457,1.3353 c -268.7399,0.269 -503.5266,2.3283 -521.5356,3.1465 l -33.7889,1.8133 -129.0927,214.0911 -128.5761,213.2347 36.029,71.9369 c 118.8418,238.6439 532.6787,1018.3251 543.8115,1025.0382 7.7073,4.647 133.9225,8.3532 280.7289,6.9596 l 267.0265,-1.3031 168.4874,-269.7423 169.0036,-270.5988 336.4811,-0.294 336.1422,-1.6653 173.4999,-287.7392 173.4999,-287.7393 z m 1529.0227,-3109.0195 c -1.3473,-11.322 -84.3362,-175.7995 -185.1061,-365.0122 -160.715,-304.7618 -184.9819,-343.9161 -206.416,-345.1642 -91.5702,-5.0015 -762.6573,0.2193 -777.4172,5.3323 -29.5196,10.2246 -361.898,565.3259 -349.2417,581.1316 4.4453,6.1832 49.3676,11.084 98.2439,11.3617 49.3931,-0.5778 93.459,3.8065 97.9042,9.9898 4.962,5.3276 102.8232,191.6175 218.9576,413.44829 116.1345,221.83087 218.114,407.10089 225.8215,411.74877 11.989,7.22872 392.5362,11.31896 438.3404,5.07433 11.8382,-2.20365 64.495,-83.72218 228.1843,-355.18978 162.6562,-269.75578 212.2405,-357.79761 210.7291,-372.72061 z m -908.0364,839.73077 c 2.0782,-9.25674 -1.1582,-19.38238 -5.44,-21.96406 -4.2818,-2.58186 -89.8565,-3.96882 -189.4992,-3.32979 -99.642,0.64006 -185.2172,-0.74798 -189.499,-3.32986 -4.2817,-2.58175 -100.7835,-183.38127 -214.8648,-402.80612 -195.8868,-376.18284 -206.6414,-399.01584 -193.7195,-426.25594 7.0656,-15.591 8.3004,-31.1943 2.3058,-34.8091 -11.133,-6.7131 -614.9813,-6.4898 -652.3851,1.3177 -20.9309,3.7275 -37.6186,27.5287 -192.5293,284.43863 -107.4051,178.12388 -166.9763,284.66662 -163.9038,291.18991 3.9294,7.04062 -0.2018,13.89126 -12.9092,21.40936 -20.2638,12.30343 -181.8745,274.51538 -180.3765,295.26971 0.3273,7.2039 100.7324,206.705169 224.7246,442.6155 159.6816,306.47513 230.9215,432.33978 245.3163,437.51658 37.0126,14.1433 691.6396,7.17142 696.2998,-6.36673 C 5682.9625,611.2808 5553.8698,354.77855 5394.1887,48.304239 5132.5531,-455.1029 5068.0004,-580.43842 5088.351,-554.15495 c 4.1057,4.81123 140.2252,263.21449 303.1559,573.984329 163.7867,311.285471 303.8356,576.729461 312.7267,589.096881 14.5327,20.44021 26.8744,23.21099 125.6605,22.05538 60.1982,-1.06958 119.5403,-2.65469 132.7512,-5.19823 20.9314,-3.72677 41.4097,-35.75244 282.0379,-434.8191 142.5179,-236.356931 260.2631,-437.43898 262.3411,-446.69564 z M 5350.4501,1462.9032 c -4.7855,-7.5563 -667.1067,-11.0623 -940.3169,-5.3137 l -62.9442,1.7485 -193.6386,321.1372 c -176.0822,292.0206 -192.7822,321.6536 -179.9369,329.3988 17.1276,10.328 955.7449,8.7785 983.3762,-0.2502 22.6565,-8.5253 401.1424,-630.4109 393.4604,-646.7206 z m 909.1694,-2220.46722 c -106.7398,-204.48895 -201.2011,-377.05168 -209.0723,-385.30088 -23.109,-19.7728 -193.4152,-16.2006 -214.3848,5.0189 -42.2783,41.0677 -39.382,49.8202 143.5338,397.16261 97.1819,183.54563 181.896,343.2243 189.0746,354.55958 11.9633,18.89062 28.7635,22.0146 142.2968,21.57699 70.4875,-0.70394 131.8949,-5.71488 135.5097,-11.70903 3.0984,-5.13777 -81.0743,-177.33567 -186.9578,-381.30817 z"
       id="path16-3" />
    <rect
       style="opacity:0.926;fill:url(#linearGradient4016);fill-opacity:1;stroke:#00b2ff;stroke-width:7.49999964;stroke-linecap:round;stroke-linejoin:round;stroke-miterlimit:100;stroke-dasharray:none;stroke-opacity:1;paint-order:stroke fill markers;filter:url(#filter3992)"
       id="rect2369"
       width="7641.5088"
       height="1499.9999"
       x="2579.2451"
       y="-3990.0002"
       transform="scale(1,-1)" />
    <flowRoot
       xml:space="preserve"
       id="flowRoot2607"
       style="font-style:normal;font-variant:normal;font-weight:bold;font-stretch:normal;font-size:133.33332825px;line-height:1.25;font-family:OpenSymbol;-inkscape-font-specification:'OpenSymbol Bold';letter-spacing:0px;word-spacing:0px;fill:#000000;fill-opacity:1;stroke:#000000;stroke-width:3.3620975;stroke-linecap:square;stroke-linejoin:bevel;stroke-miterlimit:4;stroke-dasharray:none;stroke-opacity:0.1971326;paint-order:markers stroke fill;"
       transform="matrix(8.2537758,0,0,-8.2537758,-812.52501,9519.7456)"><flowRegion
         id="flowRegion2609"
         style="font-style:normal;font-variant:normal;font-weight:bold;font-stretch:normal;font-size:133.33332825px;font-family:OpenSymbol;-inkscape-font-specification:'OpenSymbol Bold';stroke:#000000;stroke-width:3.3620975;stroke-linecap:square;stroke-linejoin:bevel;stroke-miterlimit:4;stroke-dasharray:none;stroke-opacity:0.1971326;paint-order:markers stroke fill;fill:#000000;fill-opacity:1;"><rect
           id="rect2611"
           width="917.05798"
           height="164.93849"
           x="422.24252"
           y="685.4538"
           style="font-style:normal;font-variant:normal;font-weight:bold;font-stretch:normal;font-size:133.33332825px;font-family:OpenSymbol;-inkscape-font-specification:'OpenSymbol Bold';stroke:#000000;stroke-width:3.3620975;stroke-linecap:square;stroke-linejoin:bevel;stroke-miterlimit:4;stroke-dasharray:none;stroke-opacity:0.1971326;paint-order:markers stroke fill;fill:#000000;fill-opacity:1;" /></flowRegion><flowPara
         id="flowPara2613"
         style="font-style:normal;font-variant:normal;font-weight:bold;font-stretch:normal;font-size:133.33332825px;font-family:OpenSymbol;-inkscape-font-specification:'OpenSymbol Bold';letter-spacing:20px;word-spacing:5px;fill:#000000;stroke:#000000;stroke-width:3.3620975;stroke-linecap:square;stroke-linejoin:bevel;stroke-miterlimit:4;stroke-dasharray:none;stroke-opacity:0.1971326;paint-order:markers stroke fill;fill-opacity:1;">HIVE MIND</flowPara></flowRoot>  </g>
</svg>
